<mxfile host="app.diagrams.net" agent="Mozilla/5.0 (X11; Ubuntu; Linux x86_64; rv:132.0) Gecko/20100101 Firefox/132.0" version="24.8.4">
  <diagram name="Page-1" id="UAQxPXqgqu2GQs0ukYqn">
    <mxGraphModel dx="1140" dy="664" grid="0" gridSize="15" guides="1" tooltips="1" connect="1" arrows="1" fold="1" page="1" pageScale="1" pageWidth="850" pageHeight="1100" math="0" shadow="0">
      <root>
        <mxCell id="0" />
        <mxCell id="1" parent="0" />
        <mxCell id="nJbQJ9MoWC26Eel-R_ei-3" value="&lt;font color=&quot;#3399ff&quot;&gt;Local Subnet&lt;/font&gt;" style="sketch=0;outlineConnect=0;gradientColor=none;html=1;whiteSpace=wrap;fontSize=12;fontStyle=0;shape=mxgraph.aws4.group;grIcon=mxgraph.aws4.group_subnet;strokeColor=#3399FF;fillColor=none;verticalAlign=top;align=left;spacingLeft=30;fontColor=#E8E8E8;dashed=0;" vertex="1" parent="1">
          <mxGeometry x="138" y="147" width="556" height="382" as="geometry" />
        </mxCell>
        <mxCell id="nJbQJ9MoWC26Eel-R_ei-1" value="&lt;font style=&quot;font-size: 15px;&quot;&gt;Oracle SQL Database&lt;/font&gt;" style="rounded=0;whiteSpace=wrap;html=1;" vertex="1" parent="1">
          <mxGeometry x="176.5" y="201" width="135" height="53" as="geometry" />
        </mxCell>
        <mxCell id="nJbQJ9MoWC26Eel-R_ei-2" value="&lt;font style=&quot;font-size: 15px;&quot;&gt;PHP web server&lt;/font&gt;" style="rounded=0;whiteSpace=wrap;html=1;" vertex="1" parent="1">
          <mxGeometry x="470.5" y="201" width="135" height="53" as="geometry" />
        </mxCell>
        <mxCell id="nJbQJ9MoWC26Eel-R_ei-4" value="&lt;div style=&quot;font-size: 13px;&quot;&gt;&lt;font style=&quot;font-size: 20px;&quot;&gt;STEP I - localhost&lt;/font&gt;&lt;/div&gt;" style="text;html=1;align=center;verticalAlign=middle;whiteSpace=wrap;rounded=0;" vertex="1" parent="1">
          <mxGeometry x="115" y="104" width="213" height="37" as="geometry" />
        </mxCell>
        <mxCell id="nJbQJ9MoWC26Eel-R_ei-6" value="&lt;div style=&quot;font-size: 13px;&quot;&gt;&lt;font style=&quot;font-size: 20px;&quot;&gt;STEP II (if needed) - migrate webserver/database to cloud ( aws? )&lt;br&gt;&lt;/font&gt;&lt;/div&gt;" style="text;html=1;align=center;verticalAlign=middle;whiteSpace=wrap;rounded=0;" vertex="1" parent="1">
          <mxGeometry x="797" y="92" width="315" height="55" as="geometry" />
        </mxCell>
        <mxCell id="nJbQJ9MoWC26Eel-R_ei-7" value="" style="endArrow=classic;html=1;rounded=0;exitX=1;exitY=0.25;exitDx=0;exitDy=0;entryX=0;entryY=0.25;entryDx=0;entryDy=0;" edge="1" parent="1" source="nJbQJ9MoWC26Eel-R_ei-1" target="nJbQJ9MoWC26Eel-R_ei-2">
          <mxGeometry width="50" height="50" relative="1" as="geometry">
            <mxPoint x="375.5" y="254" as="sourcePoint" />
            <mxPoint x="425.5" y="204" as="targetPoint" />
          </mxGeometry>
        </mxCell>
        <mxCell id="nJbQJ9MoWC26Eel-R_ei-8" value="" style="endArrow=classic;html=1;rounded=0;exitX=0;exitY=0.75;exitDx=0;exitDy=0;entryX=1;entryY=0.75;entryDx=0;entryDy=0;" edge="1" parent="1" source="nJbQJ9MoWC26Eel-R_ei-2" target="nJbQJ9MoWC26Eel-R_ei-1">
          <mxGeometry width="50" height="50" relative="1" as="geometry">
            <mxPoint x="329.5" y="253.17000000000002" as="sourcePoint" />
            <mxPoint x="488.5" y="253.17000000000002" as="targetPoint" />
          </mxGeometry>
        </mxCell>
        <mxCell id="nJbQJ9MoWC26Eel-R_ei-9" value="&lt;div style=&quot;font-size: 14px;&quot;&gt;- use GitHub &#39;develop&#39; repository:&lt;/div&gt;&lt;div style=&quot;font-size: 14px;&quot;&gt;- database: &lt;br style=&quot;font-size: 14px;&quot;&gt;&lt;/div&gt;&lt;div style=&quot;font-size: 14px;&quot;&gt;&lt;span style=&quot;white-space: pre; font-size: 14px;&quot;&gt;&#x9;&lt;/span&gt;&amp;gt;&amp;nbsp; docker containers (1) - can migrate image to cloud after&lt;br style=&quot;font-size: 14px;&quot;&gt;&lt;/div&gt;&lt;div style=&quot;font-size: 14px;&quot;&gt;&amp;nbsp; &amp;nbsp; &amp;nbsp; &amp;nbsp; &amp;gt;&amp;nbsp; hosted (2) - not sure of free options&lt;/div&gt;&lt;div style=&quot;font-size: 14px;&quot;&gt;- hosting:&lt;/div&gt;&lt;div style=&quot;font-size: 14px;&quot;&gt;&amp;nbsp;&amp;nbsp;&amp;nbsp;&amp;nbsp;&amp;nbsp;&amp;nbsp;&amp;nbsp; - cloudflare: free tier ?&lt;/div&gt;&lt;div style=&quot;font-size: 14px;&quot;&gt;&amp;nbsp;&amp;nbsp;&amp;nbsp;&amp;nbsp;&amp;nbsp;&amp;nbsp;&amp;nbsp; - aenofree - exposes local server&lt;br&gt;&lt;/div&gt;&lt;div style=&quot;font-size: 14px;&quot;&gt;&lt;span style=&quot;white-space: pre;&quot;&gt;&#x9;&lt;/span&gt;- aws: route53 ? &lt;br&gt;&lt;/div&gt;&lt;div style=&quot;font-size: 14px;&quot;&gt;&amp;nbsp;&amp;nbsp;&amp;nbsp;&amp;nbsp;&amp;nbsp;&amp;nbsp;&amp;nbsp; - infinityfree - hosts server ( doesn&#39;t expose it ) = will need cloud provider / public static ip ?&lt;br&gt;&lt;/div&gt;&lt;div style=&quot;font-size: 14px;&quot;&gt;&lt;br&gt;&lt;/div&gt;&lt;div style=&quot;font-size: 14px;&quot;&gt;&lt;br&gt;&lt;/div&gt;&lt;div style=&quot;font-size: 14px;&quot;&gt;&lt;br style=&quot;font-size: 14px;&quot;&gt;&lt;/div&gt;&lt;div style=&quot;font-size: 14px;&quot;&gt;- migrate code from &#39;develop&#39; to &#39;prod&#39; repository (not branch) &lt;br style=&quot;font-size: 14px;&quot;&gt;&lt;/div&gt;" style="text;html=1;align=left;verticalAlign=top;whiteSpace=wrap;rounded=0;fontSize=14;" vertex="1" parent="1">
          <mxGeometry x="167" y="285" width="452" height="149" as="geometry" />
        </mxCell>
      </root>
    </mxGraphModel>
  </diagram>
</mxfile>
